<svg width="86" height="36" viewBox="0 0 86 36" fill="none" xmlns="http://www.w3.org/2000/svg">
<path d="M13.2312 0.491336C12.7926 0.491336 12.3556 0.534142 11.9241 0.62407C7.39472 1.55975 4.91686 6.61928 4.06218 8.75186C0.816247 16.8454 -0.0640934 26.0309 1.58203 34.619L8.18492 33.2851C6.79043 26.0138 7.5364 18.2328 10.2853 11.379C10.9691 9.67256 11.8638 8.44352 12.5491 7.82902C12.9883 7.43505 13.6498 7.45647 14.0573 7.8847C14.1226 7.95322 14.1871 8.0303 14.249 8.11381C15.7111 10.0986 16.3791 13.4923 16.9679 16.4878C17.1407 17.3657 17.3191 18.2714 17.5123 19.1257C18.5049 23.4979 19.8533 28.4975 23.3114 32.4757C25.8696 35.4198 29.7171 36.5503 32.8873 35.2913C35.4127 34.2871 37.3635 31.8163 38.1045 28.6795C38.5416 26.8295 38.5383 25.0181 38.5351 23.4208C38.5343 23.0825 38.5335 22.7442 38.5374 22.4081C38.5646 19.9864 38.8352 17.5584 39.3422 15.1924C39.5021 14.4473 39.7489 13.032 40.4127 12.5331C41.1808 11.9529 42.4678 14.8006 42.6103 15.2331C42.6827 15.4536 42.7551 15.6806 42.8283 15.9097C43.2851 17.3357 43.8034 18.9501 44.6558 20.3975C46.2452 23.0954 48.3291 23.9411 49.7974 24.1745C53.1164 24.7055 56.5207 22.483 58.0759 18.7724C58.6737 17.3443 58.9633 15.9076 59.2195 14.64C59.3827 13.8307 59.538 13.0663 59.7512 12.3961C60.1318 11.2013 60.7772 10.5483 61.0311 10.5161C61.3128 10.484 62.2226 11.0536 63.1561 12.5759C63.679 13.4302 64.1575 14.3574 64.6637 15.3402C65.7502 17.4492 66.8741 19.6289 68.664 21.5495C71.9838 25.1081 77.8378 26.7803 81.8866 23.4165C84.7432 21.042 85.3218 17.4085 85.5105 14.1668C85.7748 9.634 85.7675 5.03912 85.4883 0.508458L78.7722 0.945239C79.0342 5.19327 79.0413 9.50339 78.7936 13.7536C78.6983 15.3915 78.4817 17.3592 77.6516 18.0508C76.8166 18.7424 74.7727 18.1129 73.5256 16.7747C72.3842 15.55 71.5239 13.8799 70.6116 12.1113C70.0703 11.06 69.5101 9.97231 68.8526 8.90174C66.7689 5.49946 63.9632 3.61096 61.0541 3.61096C60.7883 3.61096 60.5218 3.62596 60.2543 3.65807C57.1772 4.02421 54.5332 6.55075 53.3553 10.2485C53.025 11.287 52.8243 12.2783 52.6302 13.2397C52.4201 14.2781 52.2219 15.2609 51.8932 16.0446C51.7833 16.3079 51.6455 16.5371 51.5024 16.7276C51.1871 17.1473 50.5519 17.0937 50.3045 16.627C50.2822 16.5863 50.2598 16.5413 50.236 16.4942C49.8563 15.7341 49.5333 14.7256 49.2205 13.7514C49.1416 13.5052 49.0636 13.2632 48.9864 13.0256C48.3076 10.9637 47.0857 9.01521 45.6332 7.67914C43.5328 5.74997 41.0439 5.09265 38.6251 5.8292C37.3921 6.2039 35.642 7.13743 34.3095 9.45628C33.6362 10.6253 33.1331 12.0171 32.7702 13.7086C32.1645 16.5349 31.8407 19.4362 31.8087 22.3288C31.8048 22.6971 31.8056 23.0654 31.8056 23.4337C31.8087 24.7591 31.8112 26.0116 31.5644 27.0543C31.3319 28.0371 30.8314 28.703 30.4581 28.8529C30.0076 29.0306 29.0246 28.6752 28.3331 27.8787C25.9293 25.1145 24.9073 21.2647 24.0659 17.5584C23.8948 16.8047 23.7342 15.9868 23.5639 15.1218C22.8332 11.4047 22.0046 7.19097 19.6177 3.94928C18.0058 1.76317 15.603 0.491336 13.2312 0.491336Z" fill="#11CE8E"/>
</svg>
