<svg width="132" height="134" viewBox="0 0 132 134" fill="none" xmlns="http://www.w3.org/2000/svg">
<path d="M35.9682 89.1722C46.1379 60.2615 67.286 31.4453 69.4883 0.702225C68.9746 0.594894 68.8093 1.09065 68.6389 1.4791C65.16 9.30414 61.7854 17.1803 58.2047 24.9568C49.5176 42.8379 40.2965 60.3509 31.1236 77.979C39.9303 51.5778 51.3181 26.5642 63.2807 1.57877C64.0614 0.485001 62.7212 -0.286774 62.1465 0.973099C43.0277 29.8839 33.1378 64.2047 13.841 92.9008C26.9988 63.4355 36.8074 31.6497 48.8183 2.20488C47.9943 1.92632 47.5239 3.17085 47.0178 3.65129C44.4671 7.22904 42.397 11.0981 40.3473 14.9749C31.4542 31.8414 22.6959 48.5674 12.6458 64.8155C19.1865 44.5296 28.9646 25.1331 34.6941 4.45628C34.8442 3.9733 35.129 3.20663 34.45 3.01241C33.6235 2.99197 33.6209 4.27231 33.2802 4.83453C30.6583 11.9415 28.0109 19.0433 25.4196 26.1605C22.0398 34.6729 18.7186 43.8677 13.5562 51.2481C17.6251 37.3358 24.7914 23.0989 25.6357 8.83394C24.7558 9.38849 24.532 10.3877 24.1887 11.2489C22.3806 15.7875 20.6259 20.3466 18.8534 24.9006C14.5734 34.4404 10.8376 45.097 2.88292 52.1962C6.0414 42.9605 10.6011 33.6354 11.3946 23.8911C10.6215 24.2463 10.6037 24.8622 10.4943 25.3708C8.55649 34.3305 5.53787 42.9401 2.15305 51.4347C1.83008 52.4365 0.871368 53.8829 1.71057 54.8157C3.68399 54.9792 9.96536 45.6413 11.1123 43.5381C16.0891 35.2352 19.1357 26.0352 23.3317 17.4154C19.7638 31.0313 14.8557 44.2357 10.0264 57.4427C7.35363 64.6442 3.32033 71.1608 0.441574 78.2524C0.294083 78.5949 0.278824 79.0166 0.629776 79.198C0.983261 79.382 1.2986 79.1111 1.48679 78.7891C3.80606 75.0631 5.77184 71.1276 7.38414 67.0439C10.4613 59.4028 14.4971 52.6204 18.3117 45.2809C16.1247 54.1333 11.6005 62.4286 8.55141 71.1021C6.58817 75.9601 3.59753 80.3378 1.76143 85.2546C1.56308 85.7862 0.891693 86.5503 1.63681 86.9234C2.53452 87.7463 4.27907 82.5483 4.8004 81.82C17.1851 58.1634 31.3474 35.4575 43.516 11.6527C43.6482 11.7115 43.7754 11.7702 43.9076 11.829C32.357 40.7168 23.2274 70.5501 10.0213 98.7555C9.73648 99.4123 8.89219 100.378 9.65002 100.823C10.6596 101.416 10.8961 100.069 11.3208 99.4557C13.4443 96.3712 15.6949 93.3582 17.5666 90.1229C32.1332 65.5412 41.8605 38.5062 56.1525 13.8121C45.7692 36.4618 36.1742 59.4131 28.0643 82.9981C25.0762 90.9713 21.7423 98.7632 17.2614 106.023C16.9766 106.588 16.2137 107.35 16.8749 107.892C17.1368 108.063 17.4165 107.953 17.6022 107.702C19.039 105.786 21.2718 104.582 22.3272 102.318C23.2554 100.332 24.3566 98.4309 25.1576 96.3788C36.6446 65.899 54.4563 38.3452 67.1283 8.3995C58.7591 47.2104 33.8295 79.9774 24.0539 118.459C23.6063 119.69 24.9796 120.49 25.4425 118.975C33.4353 93.8744 47.1933 72.3134 58.9117 49.0069C65.3202 36.6586 71.0294 23.5819 78.2212 11.8213C69.2518 50.4508 48.0655 86.9822 35.5562 123.994C59.0033 91.6588 69.6231 50.6757 90.4076 16.2271C79.1672 48.874 61.0708 78.7917 51.4656 111.978C50.2628 116.956 48.4902 121.722 46.6338 126.47C46.3795 127.124 45.5708 128.121 46.5041 128.507C47.4705 128.908 47.5493 127.623 47.8087 126.976C51.5648 117.025 55.3921 107.14 60.6003 97.8483C74.0709 73.3484 85.4613 47.5963 99.1277 23.3008C87.8747 60.1644 71.0599 94.9759 59.639 131.747C59.4915 132.23 59.4178 132.782 59.9976 133.012C60.8724 133.24 61.1699 131.834 61.5514 131.272C64.8116 122.946 70.1826 115.658 73.4606 107.347C81.3975 87.4217 91.2112 68.314 98.9116 48.2786C100.346 44.3661 102.202 40.6043 103.904 36.794C105.025 34.724 105.141 32.2579 106.766 30.4512C97.4417 65.1783 80.7617 97.4854 70.7395 132.006C69.9944 133.782 71.4872 134.898 72.2857 132.724C81.4153 111.152 93.65 91.0097 101.228 68.7459C104.338 61.0997 106.603 53.0191 110.768 45.8585C105.575 65.2371 99.7508 84.5518 93.355 103.601C91.229 109.995 88.424 116.1 85.3875 122.1C83.9634 125.328 80.9423 128.957 81.4636 132.506C82.3689 132.652 82.6843 130.948 83.198 130.35C88.6325 120.102 93.2863 109.468 98.6801 99.1976C106.799 82.4078 112.325 64.2098 120.946 47.7854C115.64 65.5029 108.46 82.3183 102.993 99.9694C100.181 109.31 96.1752 118.341 93.4694 127.659C93.4186 128.249 94.0975 128.512 94.4332 128.011C97.6705 119.466 102.708 111.74 105.439 102.98C110.077 90.6417 116.613 79.1418 121.139 66.7602C121.654 65.5898 121.822 64.6672 122.929 63.7575C120.67 71.8406 118.046 79.1341 115.058 86.862C111.265 96.3431 109.476 106.458 106.089 116.082C105.845 116.792 105.04 117.899 106.122 118.264C106.949 118.546 107.046 117.229 107.294 116.568C110.789 107.02 116.642 98.7069 120.37 89.2796C120.354 91.9603 116.86 103.289 118.885 104.245C119.967 104.283 120.128 102.786 120.551 102.037C122.84 95.7144 125.867 89.6629 128.389 83.499C124.469 87.8434 123.26 93.6547 120.183 98.5408C121.006 91.1477 123.104 84.0382 125.672 77.0846C127.4 72.1422 129.444 67.3096 130.839 62.2497C130.96 61.7514 131.328 61.069 130.814 60.6959C130.3 60.4302 129.977 61.115 129.827 61.5188C123.017 76.392 119.43 92.796 110.235 106.466C113.283 91.8172 120.395 78.4339 123.731 63.8546C124.516 59.5102 127.221 55.4648 127.642 51.1868C126.906 50.9926 126.806 51.6033 126.676 52.0148C124.317 59.4642 120.154 66.1188 117.44 73.4327C115.453 78.7891 112.681 83.8516 110.206 89.0189C106.009 97.1864 103.998 105.814 99.7304 113.989C105.429 94.3881 113.057 74.9941 119.893 55.6181C120.514 53.8905 121.076 52.1247 121.481 50.3332C121.828 47.2922 125.273 41.8591 123.708 39.2652C115.576 55.659 108.393 72.4284 101.79 89.4994C99.6084 94.4188 97.6985 99.7138 94.6061 104.071C103.197 80.0694 107.885 54.7748 118.338 31.4734C118.622 30.8575 119.463 29.9324 118.421 29.4954C117.573 29.1402 117.458 30.3081 117.176 30.8907C108.216 47.0238 101.376 64.0667 95.0893 81.4034C89.0546 96.0696 81.7103 110.151 74.4905 124.257C82.9538 97.7793 94.2781 72.1141 103.53 45.8483C106.307 37.6706 107.946 29.1479 111.068 21.0826C111.253 20.5996 111.78 19.9658 110.959 19.6668C110.392 19.4624 110.13 20.0629 109.964 20.5408C109.363 22.2939 108.405 23.8707 107.516 25.4781C97.7468 47.1439 89.1691 69.3388 79.0426 90.8615C74.5592 101.383 70.5717 112.06 64.3996 121.768C72.863 93.5805 86.1886 67.1052 95.2089 39.0685C97.8104 31.5066 100.224 23.8784 102.876 16.3344C103.052 15.0439 104.466 12.726 103.698 11.7115C102.421 11.3358 102.009 13.5284 101.383 14.3206C98.1715 21.0979 95.0614 27.9263 91.7401 34.6499C78.5187 58.6873 67.5047 83.3788 54.1765 107.483C64.9871 74.1329 82.7962 42.8992 94.5909 9.58525C95.0003 8.82881 95.7429 6.54416 94.1128 7.3696C72.5069 40.1545 62.4669 79.1699 41.5044 112.285C41.1255 111.692 41.4103 111.319 41.5477 110.956C43.399 106.052 45.3063 101.173 47.5417 96.43C61.4039 66.428 73.7072 34.8058 82.4757 3.29097C82.0281 2.98943 81.6518 3.20663 81.4 3.5874C75.4569 13.0429 70.4979 23.0912 65.4753 33.0655C56.2898 52.117 46.1379 70.6472 35.9682 89.1722Z" fill="#197BFF"/>
</svg>
