<svg xmlns:xlink="http://www.w3.org/1999/xlink"  xmlns="http://www.w3.org/2000/svg" width="49" height="48" viewBox="0 0 49 48" fill="none">
<g clip-path="url(#clip0_180_3564)">
<path d="M40.3785 18.227L39.0717 19.1226C40.9084 21.8007 41.9553 24.9412 42.093 28.1856H34.971C34.9363 26.2729 34.7395 24.3666 34.3829 22.4871L32.8271 22.7882C33.1631 24.5686 33.3487 26.3741 33.382 28.1856H25.4784V18.6496C26.045 18.6257 26.6112 18.5869 27.1657 18.5146L26.9614 16.943C26.473 17.0064 25.9769 17.0421 25.4784 17.0645V10.7491C25.4784 10.5389 25.3949 10.3373 25.2463 10.1887C25.0977 10.04 24.8961 9.95654 24.6859 9.95654C15.9402 9.95694 8.32168 15.9209 6.22186 24.4108C4.12155 32.9004 8.08143 41.7286 15.8182 45.806C23.5555 49.8834 33.0756 48.1601 38.8922 41.6287C44.7086 35.0974 45.3221 25.4419 40.3785 18.2271V18.227ZM33.3937 29.7708C33.3515 33.4343 32.6043 37.0554 31.1929 40.4364C29.3576 39.7687 27.4299 39.3896 25.4784 39.3125V29.7708H33.3937ZM18.8837 41.8644C20.4966 41.2963 22.1848 40.9705 23.8933 40.8978V46.3354C21.9911 45.9748 20.2475 44.3365 18.8837 41.8644ZM19.658 45.6547C18.1113 45.1876 16.6375 44.5065 15.2795 43.631C15.9482 43.2023 16.6455 42.82 17.3666 42.4868C17.9777 43.6452 18.7491 44.7117 19.658 45.6547ZM23.8933 39.3141C21.9418 39.3912 20.0141 39.7703 18.1789 40.438C16.7671 37.0566 16.0198 33.4349 15.978 29.7708H23.8933V39.3141ZM25.4784 46.3354V40.8977C27.1869 40.9705 28.8752 41.2963 30.4881 41.8644C29.1244 44.3365 27.3805 45.9748 25.4784 46.3355V46.3354ZM32.0051 42.486C32.7262 42.8191 33.4236 43.2014 34.0922 43.6302C32.7343 44.5056 31.2607 45.1867 29.7141 45.6539C30.6229 44.7111 31.3941 43.6449 32.0051 42.4868V42.486ZM15.978 28.1856C16.0203 24.5221 16.7675 20.901 18.1789 17.52C20.0141 18.1879 21.9418 18.567 23.8933 18.6439V28.1856H15.978ZM23.8933 11.6209V17.0595C22.1848 16.9867 20.4966 16.6609 18.8837 16.0928C20.2474 13.6199 21.9912 11.9816 23.8933 11.6209ZM17.3666 15.4704C16.6455 15.1372 15.9482 14.7549 15.2795 14.3262C16.6375 13.4508 18.1113 12.7696 19.658 12.3025C18.749 13.2452 17.9776 14.3114 17.3666 15.4697V15.4704ZM13.9069 15.3064C14.7829 15.9115 15.7082 16.4418 16.6732 16.8915C15.1902 20.4734 14.4158 24.3089 14.393 28.1856H7.28807C7.40146 25.6894 8.05135 23.247 9.19349 21.0245C10.3356 18.802 11.9433 16.8518 13.9069 15.3064ZM7.28817 29.7708H14.393C14.4162 33.6464 15.1903 37.4808 16.6724 41.0618C15.7074 41.5115 14.782 42.0418 13.9061 42.647C11.9431 41.1018 10.3359 39.152 9.19392 36.9301C8.05193 34.7082 7.40194 32.2664 7.28817 29.7708ZM35.465 42.65C34.589 42.045 33.6637 41.5147 32.6987 41.0649C34.1817 37.483 34.9561 33.6475 34.979 29.7708H42.0838C41.9704 32.267 41.3205 34.7094 40.1783 36.9319C39.0362 39.1544 37.4286 41.1047 35.465 42.65Z" fill="#FF6347"/>
<path d="M31.819 21.8451C31.9438 21.8452 32.0669 21.8157 32.1781 21.7588C32.5791 21.5548 42.0105 16.695 43.5222 11.0591C43.9357 9.57529 43.9488 8.00836 43.56 6.51783C43.1712 5.02729 42.3945 3.66635 41.3089 2.5735C40.2232 1.48068 38.8674 0.695039 37.3794 0.296535C35.8914 -0.101969 34.3244 -0.0991023 32.8379 0.304844C31.3514 0.70879 29.9984 1.49939 28.9168 2.59617C27.8351 3.69295 27.0633 5.05675 26.6801 6.54873C25.1692 12.1845 30.9099 21.1086 31.1541 21.486C31.2263 21.5965 31.3249 21.6872 31.441 21.7499C31.5571 21.8126 31.687 21.8453 31.819 21.8451ZM28.2102 6.9574C29.23 3.15207 33.1418 0.893548 36.9475 1.91319C40.7528 2.93293 43.0114 6.84436 41.9916 10.6501C40.8716 14.8277 34.2133 18.8231 32.1011 20.0022C30.86 17.9245 27.0914 11.1357 28.2102 6.9574Z" fill="#FF6347"/>
<path d="M34.485 11.0994C36.1762 11.5526 37.9146 10.5491 38.3681 8.85841C38.8214 7.16717 37.8179 5.42877 36.1271 4.97522C34.436 4.52167 32.6975 5.52477 32.2439 7.21591C31.79 8.90745 32.7938 10.6462 34.485 11.0994ZM33.7717 7.62805C33.8621 7.29034 34.0616 6.99199 34.3391 6.77943C34.6167 6.56687 34.9567 6.45202 35.3063 6.45277C35.4448 6.45316 35.5829 6.47129 35.7169 6.50656C36.5624 6.73334 37.0639 7.60209 36.8376 8.44776C36.6112 9.29334 35.742 9.79523 34.8964 9.56885C34.0508 9.34248 33.5489 8.47362 33.7749 7.62805H33.7717ZM0.908783 28.1857H2.49392V29.7709H0.908783V28.1857ZM1.13397 25.63L1.4088 24.0696L2.96996 24.3447L2.69514 25.9051L1.13397 25.63ZM2.07168 21.5906L2.61429 20.101L4.10343 20.6435L3.56092 22.1331L2.07168 21.5906ZM3.69784 17.7763L4.4908 16.4036L5.86274 17.1958L5.06977 18.5685L3.69784 17.7763ZM5.96142 14.3022L6.98086 13.0871L8.19517 14.1055L7.17623 15.3208L5.96142 14.3022ZM8.79535 11.2736L10.0102 10.2546L11.0291 11.469L9.814 12.4884L8.79535 11.2736ZM12.1116 8.78401L13.4843 7.99105L14.2765 9.36298L12.9037 10.156L12.1116 8.78401ZM15.8089 6.90671L17.2981 6.3641L17.8406 7.85334L16.3515 8.39625L15.8089 6.90671ZM19.7776 5.70003L21.338 5.4256L21.6127 6.98676L20.0523 7.26119L19.7776 5.70003ZM43.5082 17.1958L44.8802 16.4032L45.6731 17.7759L44.3012 18.5685L43.5082 17.1958ZM45.2683 20.6439L46.7579 20.1013L47.3005 21.5909L45.8112 22.1335L45.2683 20.6439ZM46.4033 24.3444L47.9645 24.0696L48.239 25.63L46.6777 25.9048L46.4033 24.3444ZM46.8778 28.1857H48.463V29.7709H46.8778V28.1857ZM46.403 33.6122L46.6777 32.0518L48.2389 32.3266L47.9641 33.887L46.403 33.6122ZM45.2683 37.3127L45.8108 35.8231L47.3005 36.3656L46.7579 37.8553L45.2683 37.3127ZM43.509 40.7608L44.3016 39.3885L45.6735 40.1807L44.8809 41.5534L43.509 40.7608ZM41.1763 43.8502L42.1955 42.6351L43.4099 43.6535L42.391 44.8688L41.1763 43.8502ZM38.343 46.4879L39.5582 45.469L40.5767 46.6834L39.3616 47.7024L38.343 46.4879ZM8.79535 46.6838L9.8136 45.469L11.0292 46.4875L10.0106 47.7024L8.79535 46.6838ZM5.96221 43.6536L7.17702 42.6355L8.19597 43.8506L6.98115 44.8691L5.96221 43.6536ZM3.69863 40.1796L5.07057 39.3877L5.86314 40.7604L4.4908 41.5526L3.69863 40.1796ZM2.07128 36.3656L3.56092 35.8231L4.10343 37.3123L2.61429 37.8549L2.07128 36.3656ZM1.13288 32.3266L2.69405 32.0518L2.96847 33.6122L1.40721 33.887L1.13288 32.3266Z" fill="#FF6347"/>
</g>
<defs>
<clipPath id="clip0_180_3564">
<rect width="48" height="48" fill="white" transform="translate(0.859253)"/>
</clipPath>
</defs>
</svg>