<svg xmlns:xlink="http://www.w3.org/1999/xlink"  xmlns="http://www.w3.org/2000/svg" width="45" height="44" viewBox="0 0 45 44" fill="none">
<path d="M20.7893 37H5.85925C5.0636 37 4.30054 36.6839 3.73793 36.1213C3.17532 35.5587 2.85925 34.7957 2.85925 34V13H35.8593V19.32C35.8593 19.5852 35.9646 19.8396 36.1521 20.0271C36.3397 20.2146 36.594 20.32 36.8593 20.32C37.1245 20.32 37.3788 20.2146 37.5664 20.0271C37.7539 19.8396 37.8593 19.5852 37.8593 19.32V8C37.8577 6.67441 37.3304 5.40356 36.393 4.46622C35.4557 3.52888 34.1848 3.00159 32.8593 3H30.8593C30.8593 2.20435 30.5432 1.44129 29.9806 0.87868C29.418 0.316071 28.6549 0 27.8593 0C27.0636 0 26.3005 0.316071 25.7379 0.87868C25.1753 1.44129 24.8593 2.20435 24.8593 3H13.8593C13.8593 2.20435 13.5432 1.44129 12.9806 0.87868C12.418 0.316071 11.6549 0 10.8593 0C10.0636 0 9.30054 0.316071 8.73793 0.87868C8.17532 1.44129 7.85925 2.20435 7.85925 3H5.85925C4.53366 3.00159 3.26281 3.52888 2.32547 4.46622C1.38813 5.40356 0.860841 6.67441 0.859253 8V34C0.860841 35.3256 1.38813 36.5964 2.32547 37.5338C3.26281 38.4711 4.53366 38.9984 5.85925 39H20.7893C21.0545 39 21.3088 38.8946 21.4964 38.7071C21.6839 38.5196 21.7893 38.2652 21.7893 38C21.7893 37.7348 21.6839 37.4804 21.4964 37.2929C21.3088 37.1054 21.0545 37 20.7893 37ZM26.8593 3C26.8593 2.73478 26.9646 2.48043 27.1521 2.29289C27.3397 2.10536 27.594 2 27.8593 2C28.1245 2 28.3788 2.10536 28.5664 2.29289C28.7539 2.48043 28.8593 2.73478 28.8593 3V5C28.8593 5.26522 28.7539 5.51957 28.5664 5.70711C28.3788 5.89464 28.1245 6 27.8593 6C27.594 6 27.3397 5.89464 27.1521 5.70711C26.9646 5.51957 26.8593 5.26522 26.8593 5V3ZM9.85925 3C9.85925 2.73478 9.96461 2.48043 10.1521 2.29289C10.3397 2.10536 10.594 2 10.8593 2C11.1245 2 11.3788 2.10536 11.5664 2.29289C11.7539 2.48043 11.8593 2.73478 11.8593 3V5C11.8593 5.26522 11.7539 5.51957 11.5664 5.70711C11.3788 5.89464 11.1245 6 10.8593 6C10.594 6 10.3397 5.89464 10.1521 5.70711C9.96461 5.51957 9.85925 5.26522 9.85925 5V3ZM2.85925 8C2.85925 7.20435 3.17532 6.44129 3.73793 5.87868C4.30054 5.31607 5.0636 5 5.85925 5H7.85925C7.85925 5.79565 8.17532 6.55871 8.73793 7.12132C9.30054 7.68393 10.0636 8 10.8593 8C11.6549 8 12.418 7.68393 12.9806 7.12132C13.5432 6.55871 13.8593 5.79565 13.8593 5H24.8593C24.8593 5.79565 25.1753 6.55871 25.7379 7.12132C26.3005 7.68393 27.0636 8 27.8593 8C28.6549 8 29.418 7.68393 29.9806 7.12132C30.5432 6.55871 30.8593 5.79565 30.8593 5H32.8593C33.6549 5 34.418 5.31607 34.9806 5.87868C35.5432 6.44129 35.8593 7.20435 35.8593 8V11H2.85925V8Z" fill="#197BFF"/>
<path d="M12.8593 18C12.8593 17.4696 12.6485 16.9609 12.2735 16.5858C11.8984 16.2107 11.3897 16 10.8593 16H7.85925C7.32882 16 6.82011 16.2107 6.44504 16.5858C6.06997 16.9609 5.85925 17.4696 5.85925 18V21C5.85925 21.5304 6.06997 22.0391 6.44504 22.4142C6.82011 22.7893 7.32882 23 7.85925 23H10.8593C11.3897 23 11.8984 22.7893 12.2735 22.4142C12.6485 22.0391 12.8593 21.5304 12.8593 21V18ZM7.85925 21V18H10.8593V21H7.85925ZM22.8593 18C22.8593 17.4696 22.6485 16.9609 22.2735 16.5858C21.8984 16.2107 21.3897 16 20.8593 16H17.8593C17.3288 16 16.8201 16.2107 16.445 16.5858C16.07 16.9609 15.8593 17.4696 15.8593 18V21C15.8593 21.5304 16.07 22.0391 16.445 22.4142C16.8201 22.7893 17.3288 23 17.8593 23H20.8593C21.3897 23 21.8984 22.7893 22.2735 22.4142C22.6485 22.0391 22.8593 21.5304 22.8593 21V18ZM17.8593 21V18H20.8593V21H17.8593ZM31.8593 20.14C32.1245 20.14 32.3788 20.0346 32.5664 19.8471C32.7539 19.6596 32.8593 19.4052 32.8593 19.14V18C32.8593 17.4696 32.6485 16.9609 32.2735 16.5858C31.8984 16.2107 31.3897 16 30.8593 16H27.8593C27.3288 16 26.8201 16.2107 26.445 16.5858C26.07 16.9609 25.8593 17.4696 25.8593 18V20.88C25.8593 21.1452 25.9646 21.3996 26.1521 21.5871C26.3397 21.7746 26.594 21.88 26.8593 21.88C27.1245 21.88 27.3788 21.7746 27.5664 21.5871C27.7539 21.3996 27.8593 21.1452 27.8593 20.88V18H30.8593V19.14C30.8593 19.4052 30.9646 19.6596 31.1521 19.8471C31.3397 20.0346 31.594 20.14 31.8593 20.14ZM10.8593 26H7.85925C7.32882 26 6.82011 26.2107 6.44504 26.5858C6.06997 26.9609 5.85925 27.4696 5.85925 28V31C5.85925 31.5304 6.06997 32.0391 6.44504 32.4142C6.82011 32.7893 7.32882 33 7.85925 33H10.8593C11.3897 33 11.8984 32.7893 12.2735 32.4142C12.6485 32.0391 12.8593 31.5304 12.8593 31V28C12.8593 27.4696 12.6485 26.9609 12.2735 26.5858C11.8984 26.2107 11.3897 26 10.8593 26ZM7.85925 31V28H10.8593V31H7.85925ZM21.5493 26.131C21.3297 26.0438 21.0955 25.9994 20.8593 26H17.8593C17.3288 26 16.8201 26.2107 16.445 26.5858C16.07 26.9609 15.8593 27.4696 15.8593 28V31C15.8593 31.5304 16.07 32.0391 16.445 32.4142C16.8201 32.7893 17.3288 33 17.8593 33H19.8993C20.1645 33 20.4188 32.8946 20.6064 32.7071C20.7939 32.5196 20.8993 32.2652 20.8993 32C20.8993 31.7348 20.7939 31.4804 20.6064 31.2929C20.4188 31.1054 20.1645 31 19.8993 31H17.8593V28L20.8093 27.989C21.0552 28.0848 21.3289 28.0794 21.5709 27.9742C21.8129 27.869 22.0035 27.6723 22.1011 27.4272C22.1988 27.182 22.1956 26.9082 22.0922 26.6654C21.9888 26.4226 21.7937 26.2305 21.5493 26.131ZM33.8593 22C31.6837 22 29.5569 22.6451 27.748 23.8538C25.939 25.0625 24.5291 26.7805 23.6966 28.7905C22.864 30.8005 22.6462 33.0122 23.0706 35.146C23.4951 37.2798 24.5427 39.2398 26.0811 40.7782C27.6195 42.3166 29.5795 43.3642 31.7133 43.7886C33.8471 44.2131 36.0588 43.9952 38.0688 43.1627C40.0788 42.3301 41.7967 40.9202 43.0054 39.1113C44.2141 37.3023 44.8593 35.1756 44.8593 33C44.8558 30.0837 43.6958 27.2878 41.6336 25.2256C39.5715 23.1635 36.7756 22.0034 33.8593 22ZM33.8593 42C32.0792 42 30.3392 41.4722 28.8591 40.4832C27.3791 39.4943 26.2255 38.0887 25.5443 36.4442C24.8631 34.7996 24.6849 32.99 25.0322 31.2442C25.3795 29.4984 26.2366 27.8947 27.4953 26.636C28.754 25.3774 30.3576 24.5202 32.1034 24.1729C33.8493 23.8257 35.6589 24.0039 37.3034 24.6851C38.9479 25.3663 40.3535 26.5198 41.3425 27.9999C42.3314 29.4799 42.8593 31.22 42.8593 33C42.8566 35.3861 41.9075 37.6738 40.2203 39.361C38.533 41.0483 36.2454 41.9974 33.8593 42Z" fill="#197BFF"/>
<path d="M34.8593 32.586V28C34.8593 27.7348 34.7539 27.4804 34.5664 27.2929C34.3788 27.1054 34.1245 27 33.8593 27C33.594 27 33.3397 27.1054 33.1521 27.2929C32.9646 27.4804 32.8593 27.7348 32.8593 28V33C32.8593 33.2652 32.9647 33.5195 33.1523 33.707L35.1523 35.707C35.3409 35.8892 35.5935 35.99 35.8557 35.9877C36.1179 35.9854 36.3687 35.8802 36.5541 35.6948C36.7395 35.5094 36.8446 35.2586 36.8469 34.9964C36.8492 34.7342 36.7484 34.4816 36.5663 34.293L34.8593 32.586Z" fill="#197BFF"/>
</svg>